<svg xmlns="http://www.w3.org/2000/svg" viewBox="0 0 1425.5 100"><line x1="10" y1="70" x2="1420.5" y2="70" stroke="gray" /><text x="10" y="90">Spring Boot Version History, scraped at 7.1.2022, 11:47:00</text><circle cx="10" cy="70" r="3" fill="gray" stroke="white" /><text x="5" y="40">1.0</text><circle cx="10" cy="50" r="3" fill="green" stroke="white" /><circle cx="25" cy="70" r="3" fill="gray" stroke="white" /><circle cx="40" cy="70" r="3" fill="gray" stroke="white" /><circle cx="55" cy="70" r="3" fill="gray" stroke="white" /><circle cx="70" cy="70" r="3" fill="gray" stroke="white" /><circle cx="85" cy="70" r="3" fill="gray" stroke="white" /><circle cx="100" cy="70" r="3" fill="gray" stroke="white" /><circle cx="115" cy="70" r="3" fill="gray" stroke="white" /><circle cx="130" cy="70" r="3" fill="gray" stroke="white" /><circle cx="145" cy="70" r="3" fill="gray" stroke="white" /><circle cx="160" cy="70" r="3" fill="gray" stroke="white" /><circle cx="175" cy="70" r="3" fill="gray" stroke="white" /><circle cx="190" cy="70" r="3" fill="gray" stroke="white" /><circle cx="205" cy="70" r="3" fill="gray" stroke="white" /><circle cx="220" cy="70" r="3" fill="gray" stroke="white" /><circle cx="235" cy="70" r="3" fill="gray" stroke="white" /><circle cx="235" cy="50" r="3" fill="green" stroke="white" /><text x="225" y="35">1.2</text><circle cx="250" cy="70" r="3" fill="gray" stroke="white" /><circle cx="265" cy="70" r="3" fill="gray" stroke="white" /><circle cx="280" cy="70" r="3" fill="gray" stroke="white" /><circle cx="295" cy="70" r="3" fill="gray" stroke="white" /><circle cx="310" cy="70" r="3" fill="gray" stroke="white" /><circle cx="325" cy="70" r="3" fill="gray" stroke="white" /><circle cx="340" cy="70" r="3" fill="gray" stroke="white" /><circle cx="355" cy="70" r="3" fill="gray" stroke="white" /><circle cx="370" cy="70" r="3" fill="gray" stroke="white" /><circle cx="385" cy="70" r="3" fill="gray" stroke="white" /><circle cx="400" cy="70" r="3" fill="gray" stroke="white" /><circle cx="400" cy="50" r="3" fill="green" stroke="white" /><text x="390" y="35">1.3</text><circle cx="415" cy="70" r="3" fill="gray" stroke="white" /><circle cx="430" cy="70" r="3" fill="gray" stroke="white" /><circle cx="445" cy="70" r="3" fill="gray" stroke="white" /><circle cx="460" cy="70" r="3" fill="gray" stroke="white" /><circle cx="475" cy="70" r="3" fill="gray" stroke="white" /><circle cx="490" cy="70" r="3" fill="gray" stroke="white" /><circle cx="505" cy="70" r="3" fill="gray" stroke="white" /><circle cx="505" cy="50" r="3" fill="green" stroke="white" /><text x="495" y="35">1.4</text><circle cx="520" cy="70" r="3" fill="gray" stroke="white" /><circle cx="535" cy="70" r="3" fill="gray" stroke="white" /><circle cx="550" cy="70" r="3" fill="gray" stroke="white" /><circle cx="565" cy="70" r="3" fill="gray" stroke="white" /><circle cx="580" cy="70" r="3" fill="gray" stroke="white" /><circle cx="595" cy="70" r="3" fill="gray" stroke="white" /><circle cx="610" cy="70" r="3" fill="gray" stroke="white" /><circle cx="625" cy="70" r="3" fill="gray" stroke="white" /><circle cx="640" cy="70" r="3" fill="gray" stroke="white" /><circle cx="640" cy="50" r="3" fill="green" stroke="white" /><text x="630" y="35">1.5</text><circle cx="655" cy="70" r="3" fill="gray" stroke="white" /><circle cx="670" cy="70" r="3" fill="gray" stroke="white" /><circle cx="685" cy="70" r="3" fill="gray" stroke="white" /><circle cx="700" cy="70" r="3" fill="gray" stroke="white" /><circle cx="715" cy="70" r="3" fill="gray" stroke="white" /><circle cx="730" cy="70" r="3" fill="gray" stroke="white" /><circle cx="745" cy="70" r="3" fill="gray" stroke="white" /><circle cx="760" cy="70" r="3" fill="gray" stroke="white" /><circle cx="775" cy="70" r="3" fill="gray" stroke="white" /><circle cx="790" cy="70" r="3" fill="gray" stroke="white" /><circle cx="805" cy="70" r="3" fill="gray" stroke="white" /><circle cx="820" cy="70" r="3" fill="gray" stroke="white" /><circle cx="835" cy="70" r="3" fill="gray" stroke="white" /><circle cx="850" cy="70" r="3" fill="gray" stroke="white" /><circle cx="865" cy="70" r="3" fill="gray" stroke="white" /><circle cx="880" cy="70" r="3" fill="gray" stroke="white" /><text x="421" y="20">2.0</text><circle cx="880" cy="30" r="3" fill="blue" stroke="white" /><circle cx="895" cy="70" r="3" fill="gray" stroke="white" /><circle cx="910" cy="70" r="3" fill="gray" stroke="white" /><circle cx="925" cy="70" r="3" fill="gray" stroke="white" /><circle cx="940" cy="70" r="3" fill="gray" stroke="white" /><circle cx="955" cy="70" r="3" fill="gray" stroke="white" /><circle cx="970" cy="70" r="3" fill="gray" stroke="white" /><circle cx="985" cy="70" r="3" fill="gray" stroke="white" /><circle cx="1000" cy="70" r="3" fill="gray" stroke="white" /><circle cx="1015" cy="70" r="3" fill="gray" stroke="white" /><circle cx="1030" cy="70" r="3" fill="gray" stroke="white" /><circle cx="1045" cy="70" r="3" fill="gray" stroke="white" /><circle cx="1060" cy="70" r="3" fill="gray" stroke="white" /><circle cx="1075" cy="70" r="3" fill="gray" stroke="white" /><circle cx="1090" cy="70" r="3" fill="gray" stroke="white" /><circle cx="1105" cy="70" r="3" fill="gray" stroke="white" /><circle cx="1120" cy="70" r="3" fill="gray" stroke="white" /><circle cx="1135" cy="70" r="3" fill="gray" stroke="white" /><circle cx="1135" cy="30" r="3" fill="blue" stroke="white" /><text x="1125" y="15">2.3</text><circle cx="1150" cy="70" r="3" fill="gray" stroke="white" /><circle cx="1165" cy="70" r="3" fill="gray" stroke="white" /><circle cx="1180" cy="70" r="3" fill="gray" stroke="white" /><circle cx="1195" cy="70" r="3" fill="gray" stroke="white" /><circle cx="1210" cy="70" r="3" fill="gray" stroke="white" /><circle cx="1225" cy="70" r="3" fill="gray" stroke="white" /><circle cx="1240" cy="70" r="3" fill="gray" stroke="white" /><circle cx="1255" cy="70" r="3" fill="gray" stroke="white" /><circle cx="1270" cy="70" r="3" fill="gray" stroke="white" /><circle cx="1285" cy="70" r="3" fill="gray" stroke="white" /><circle cx="1285" cy="30" r="3" fill="blue" stroke="white" /><text x="1275" y="15">2.4</text><circle cx="1300" cy="70" r="3" fill="gray" stroke="white" /><circle cx="1315" cy="70" r="3" fill="gray" stroke="white" /><circle cx="1330" cy="70" r="3" fill="gray" stroke="white" /><circle cx="1345" cy="70" r="3" fill="gray" stroke="white" /><circle cx="1360" cy="70" r="3" fill="gray" stroke="white" /><circle cx="1375" cy="70" r="3" fill="gray" stroke="white" /><circle cx="1390" cy="70" r="3" fill="gray" stroke="white" /><circle cx="1405" cy="70" r="3" fill="gray" stroke="white" /><circle cx="1420" cy="70" r="3" fill="gray" stroke="white" /></svg>