<svg xmlns="http://www.w3.org/2000/svg" viewBox="0 0 950.3333333333334 100"><line x1="10" y1="70" x2="950.3333333333334" y2="70" stroke="black" /><circle cx="10" cy="70" r="3" fill="white" stroke="black" /><text x="5" y="40">1.0</text><circle cx="10" cy="50" r="3" fill="green" stroke="white" /><circle cx="20" cy="70" r="3" fill="white" stroke="black" /><circle cx="30" cy="70" r="3" fill="white" stroke="black" /><circle cx="40" cy="70" r="3" fill="white" stroke="black" /><circle cx="50" cy="70" r="3" fill="white" stroke="black" /><circle cx="60" cy="70" r="3" fill="white" stroke="black" /><circle cx="70" cy="70" r="3" fill="white" stroke="black" /><circle cx="80" cy="70" r="3" fill="white" stroke="black" /><circle cx="90" cy="70" r="3" fill="white" stroke="black" /><circle cx="100" cy="70" r="3" fill="white" stroke="black" /><circle cx="110" cy="70" r="3" fill="white" stroke="black" /><circle cx="120" cy="70" r="3" fill="white" stroke="black" /><circle cx="130" cy="70" r="3" fill="white" stroke="black" /><circle cx="140" cy="70" r="3" fill="white" stroke="black" /><circle cx="150" cy="70" r="3" fill="white" stroke="black" /><circle cx="160" cy="70" r="3" fill="white" stroke="black" /><circle cx="160" cy="50" r="3" fill="green" stroke="white" /><text x="150" y="35">1.2</text><circle cx="170" cy="70" r="3" fill="white" stroke="black" /><circle cx="180" cy="70" r="3" fill="white" stroke="black" /><circle cx="190" cy="70" r="3" fill="white" stroke="black" /><circle cx="200" cy="70" r="3" fill="white" stroke="black" /><circle cx="210" cy="70" r="3" fill="white" stroke="black" /><circle cx="220" cy="70" r="3" fill="white" stroke="black" /><circle cx="230" cy="70" r="3" fill="white" stroke="black" /><circle cx="240" cy="70" r="3" fill="white" stroke="black" /><circle cx="250" cy="70" r="3" fill="white" stroke="black" /><circle cx="260" cy="70" r="3" fill="white" stroke="black" /><circle cx="270" cy="70" r="3" fill="white" stroke="black" /><circle cx="270" cy="50" r="3" fill="green" stroke="white" /><text x="260" y="35">1.3</text><circle cx="280" cy="70" r="3" fill="white" stroke="black" /><circle cx="290" cy="70" r="3" fill="white" stroke="black" /><circle cx="300" cy="70" r="3" fill="white" stroke="black" /><circle cx="310" cy="70" r="3" fill="white" stroke="black" /><circle cx="320" cy="70" r="3" fill="white" stroke="black" /><circle cx="330" cy="70" r="3" fill="white" stroke="black" /><circle cx="340" cy="70" r="3" fill="white" stroke="black" /><circle cx="340" cy="50" r="3" fill="green" stroke="white" /><text x="330" y="35">1.4</text><circle cx="350" cy="70" r="3" fill="white" stroke="black" /><circle cx="360" cy="70" r="3" fill="white" stroke="black" /><circle cx="370" cy="70" r="3" fill="white" stroke="black" /><circle cx="380" cy="70" r="3" fill="white" stroke="black" /><circle cx="390" cy="70" r="3" fill="white" stroke="black" /><circle cx="400" cy="70" r="3" fill="white" stroke="black" /><circle cx="410" cy="70" r="3" fill="white" stroke="black" /><circle cx="420" cy="70" r="3" fill="white" stroke="black" /><circle cx="430" cy="70" r="3" fill="white" stroke="black" /><circle cx="430" cy="50" r="3" fill="green" stroke="white" /><text x="420" y="35">1.5</text><circle cx="440" cy="70" r="3" fill="white" stroke="black" /><circle cx="450" cy="70" r="3" fill="white" stroke="black" /><circle cx="460" cy="70" r="3" fill="white" stroke="black" /><circle cx="470" cy="70" r="3" fill="white" stroke="black" /><circle cx="480" cy="70" r="3" fill="white" stroke="black" /><circle cx="490" cy="70" r="3" fill="white" stroke="black" /><circle cx="500" cy="70" r="3" fill="white" stroke="black" /><circle cx="510" cy="70" r="3" fill="white" stroke="black" /><circle cx="520" cy="70" r="3" fill="white" stroke="black" /><circle cx="530" cy="70" r="3" fill="white" stroke="black" /><circle cx="540" cy="70" r="3" fill="white" stroke="black" /><circle cx="550" cy="70" r="3" fill="white" stroke="black" /><circle cx="560" cy="70" r="3" fill="white" stroke="black" /><circle cx="570" cy="70" r="3" fill="white" stroke="black" /><circle cx="580" cy="70" r="3" fill="white" stroke="black" /><circle cx="590" cy="70" r="3" fill="white" stroke="black" /><text x="421" y="20">2.0</text><circle cx="590" cy="30" r="3" fill="blue" stroke="white" /><circle cx="600" cy="70" r="3" fill="white" stroke="black" /><circle cx="610" cy="70" r="3" fill="white" stroke="black" /><circle cx="620" cy="70" r="3" fill="white" stroke="black" /><circle cx="630" cy="70" r="3" fill="white" stroke="black" /><circle cx="640" cy="70" r="3" fill="white" stroke="black" /><circle cx="650" cy="70" r="3" fill="white" stroke="black" /><circle cx="660" cy="70" r="3" fill="white" stroke="black" /><circle cx="670" cy="70" r="3" fill="white" stroke="black" /><circle cx="680" cy="70" r="3" fill="white" stroke="black" /><circle cx="690" cy="70" r="3" fill="white" stroke="black" /><circle cx="700" cy="70" r="3" fill="white" stroke="black" /><circle cx="710" cy="70" r="3" fill="white" stroke="black" /><circle cx="720" cy="70" r="3" fill="white" stroke="black" /><circle cx="730" cy="70" r="3" fill="white" stroke="black" /><circle cx="740" cy="70" r="3" fill="white" stroke="black" /><circle cx="750" cy="70" r="3" fill="white" stroke="black" /><circle cx="760" cy="70" r="3" fill="white" stroke="black" /><circle cx="760" cy="30" r="3" fill="blue" stroke="white" /><text x="750" y="15">2.3</text><circle cx="770" cy="70" r="3" fill="white" stroke="black" /><circle cx="780" cy="70" r="3" fill="white" stroke="black" /><circle cx="790" cy="70" r="3" fill="white" stroke="black" /><circle cx="800" cy="70" r="3" fill="white" stroke="black" /><circle cx="810" cy="70" r="3" fill="white" stroke="black" /><circle cx="820" cy="70" r="3" fill="white" stroke="black" /><circle cx="830" cy="70" r="3" fill="white" stroke="black" /><circle cx="840" cy="70" r="3" fill="white" stroke="black" /><circle cx="850" cy="70" r="3" fill="white" stroke="black" /><circle cx="860" cy="70" r="3" fill="white" stroke="black" /><circle cx="860" cy="30" r="3" fill="blue" stroke="white" /><text x="850" y="15">2.4</text><circle cx="870" cy="70" r="3" fill="white" stroke="black" /><circle cx="880" cy="70" r="3" fill="white" stroke="black" /><circle cx="890" cy="70" r="3" fill="white" stroke="black" /><circle cx="900" cy="70" r="3" fill="white" stroke="black" /><circle cx="910" cy="70" r="3" fill="white" stroke="black" /><circle cx="920" cy="70" r="3" fill="white" stroke="black" /><circle cx="930" cy="70" r="3" fill="white" stroke="black" /><circle cx="940" cy="70" r="3" fill="white" stroke="black" /><circle cx="950" cy="70" r="3" fill="white" stroke="black" /></svg>