<svg xmlns="http://www.w3.org/2000/svg" viewBox="0 0 990.6666666666666 100"><line x1="5" y1="70" x2="987.6666666666666" y2="70" stroke="gray" /><circle cx="5" cy="70" r="3" fill="white" stroke="gray" /><circle cx="15" cy="70" r="3" fill="white" stroke="gray" /><circle cx="25" cy="70" r="3" fill="white" stroke="gray" /><text x="0" y="97" font-family="Pt Sans">2014</text><line x1="5" y1="80" x2="5" y2="73" stroke="gray" /><circle cx="35" cy="70" r="3" fill="white" stroke="gray" /><circle cx="45" cy="70" r="3" fill="white" stroke="gray" /><circle cx="55" cy="70" r="3" fill="white" stroke="gray" /><circle cx="65" cy="70" r="3" fill="white" stroke="gray" /><circle cx="75" cy="70" r="3" fill="white" stroke="gray" /><circle cx="85" cy="70" r="3" fill="white" stroke="gray" /><circle cx="95" cy="70" r="3" fill="white" stroke="gray" /><circle cx="105" cy="70" r="3" fill="white" stroke="gray" /><circle cx="115" cy="70" r="3" fill="white" stroke="gray" /><text x="99" y="97" font-family="Pt Sans">2015</text><line x1="115" y1="80" x2="115" y2="73" stroke="gray" /><circle cx="125" cy="70" r="3" fill="white" stroke="gray" /><circle cx="135" cy="70" r="3" fill="white" stroke="gray" /><circle cx="145" cy="70" r="3" fill="white" stroke="gray" /><circle cx="155" cy="70" r="3" fill="white" stroke="gray" /><circle cx="165" cy="70" r="3" fill="white" stroke="gray" /><circle cx="175" cy="70" r="3" fill="white" stroke="gray" /><circle cx="185" cy="70" r="3" fill="white" stroke="gray" /><circle cx="195" cy="70" r="3" fill="white" stroke="gray" /><circle cx="205" cy="70" r="3" fill="white" stroke="gray" /><circle cx="215" cy="70" r="3" fill="white" stroke="gray" /><circle cx="225" cy="70" r="3" fill="white" stroke="gray" /><circle cx="235" cy="70" r="3" fill="white" stroke="gray" /><text x="219" y="97" font-family="Pt Sans">2016</text><line x1="235" y1="80" x2="235" y2="73" stroke="gray" /><circle cx="245" cy="70" r="3" fill="white" stroke="gray" /><circle cx="255" cy="70" r="3" fill="white" stroke="gray" /><circle cx="265" cy="70" r="3" fill="white" stroke="gray" /><circle cx="275" cy="70" r="3" fill="white" stroke="gray" /><circle cx="285" cy="70" r="3" fill="white" stroke="gray" /><circle cx="295" cy="70" r="3" fill="white" stroke="gray" /><circle cx="305" cy="70" r="3" fill="white" stroke="gray" /><circle cx="315" cy="70" r="3" fill="white" stroke="gray" /><circle cx="325" cy="70" r="3" fill="white" stroke="gray" /><circle cx="335" cy="70" r="3" fill="white" stroke="gray" /><circle cx="345" cy="70" r="3" fill="white" stroke="gray" /><circle cx="355" cy="70" r="3" fill="white" stroke="gray" /><text x="339" y="97" font-family="Pt Sans">2017</text><line x1="355" y1="80" x2="355" y2="73" stroke="gray" /><circle cx="365" cy="70" r="3" fill="white" stroke="gray" /><circle cx="375" cy="70" r="3" fill="white" stroke="gray" /><circle cx="385" cy="70" r="3" fill="white" stroke="gray" /><circle cx="395" cy="70" r="3" fill="white" stroke="gray" /><circle cx="405" cy="70" r="3" fill="white" stroke="gray" /><circle cx="415" cy="70" r="3" fill="white" stroke="gray" /><circle cx="425" cy="70" r="3" fill="white" stroke="gray" /><circle cx="435" cy="70" r="3" fill="white" stroke="gray" /><circle cx="445" cy="70" r="3" fill="white" stroke="gray" /><circle cx="455" cy="70" r="3" fill="white" stroke="gray" /><circle cx="465" cy="70" r="3" fill="white" stroke="gray" /><circle cx="475" cy="70" r="3" fill="white" stroke="gray" /><text x="459" y="97" font-family="Pt Sans">2018</text><line x1="475" y1="80" x2="475" y2="73" stroke="gray" /><circle cx="485" cy="70" r="3" fill="white" stroke="gray" /><circle cx="495" cy="70" r="3" fill="white" stroke="gray" /><circle cx="505" cy="70" r="3" fill="white" stroke="gray" /><circle cx="515" cy="70" r="3" fill="white" stroke="gray" /><circle cx="525" cy="70" r="3" fill="white" stroke="gray" /><circle cx="535" cy="70" r="3" fill="white" stroke="gray" /><circle cx="545" cy="70" r="3" fill="white" stroke="gray" /><circle cx="555" cy="70" r="3" fill="white" stroke="gray" /><circle cx="565" cy="70" r="3" fill="white" stroke="gray" /><circle cx="575" cy="70" r="3" fill="white" stroke="gray" /><circle cx="585" cy="70" r="3" fill="white" stroke="gray" /><text x="569" y="97" font-family="Pt Sans">2019</text><line x1="585" y1="80" x2="585" y2="73" stroke="gray" /><circle cx="595" cy="70" r="3" fill="white" stroke="gray" /><circle cx="605" cy="70" r="3" fill="white" stroke="gray" /><circle cx="615" cy="70" r="3" fill="white" stroke="gray" /><circle cx="625" cy="70" r="3" fill="white" stroke="gray" /><circle cx="635" cy="70" r="3" fill="white" stroke="gray" /><circle cx="645" cy="70" r="3" fill="white" stroke="gray" /><circle cx="655" cy="70" r="3" fill="white" stroke="gray" /><circle cx="665" cy="70" r="3" fill="white" stroke="gray" /><circle cx="675" cy="70" r="3" fill="white" stroke="gray" /><circle cx="685" cy="70" r="3" fill="white" stroke="gray" /><circle cx="695" cy="70" r="3" fill="white" stroke="gray" /><circle cx="705" cy="70" r="3" fill="white" stroke="gray" /><text x="689" y="97" font-family="Pt Sans">2020</text><line x1="705" y1="80" x2="705" y2="73" stroke="gray" /><circle cx="715" cy="70" r="3" fill="white" stroke="gray" /><circle cx="725" cy="70" r="3" fill="white" stroke="gray" /><circle cx="735" cy="70" r="3" fill="white" stroke="gray" /><circle cx="745" cy="70" r="3" fill="white" stroke="gray" /><circle cx="755" cy="70" r="3" fill="white" stroke="gray" /><circle cx="765" cy="70" r="3" fill="white" stroke="gray" /><circle cx="775" cy="70" r="3" fill="white" stroke="gray" /><circle cx="785" cy="70" r="3" fill="white" stroke="gray" /><circle cx="795" cy="70" r="3" fill="white" stroke="gray" /><circle cx="805" cy="70" r="3" fill="white" stroke="gray" /><circle cx="815" cy="70" r="3" fill="white" stroke="gray" /><circle cx="825" cy="70" r="3" fill="white" stroke="gray" /><text x="809" y="97" font-family="Pt Sans">2021</text><line x1="825" y1="80" x2="825" y2="73" stroke="gray" /><circle cx="835" cy="70" r="3" fill="white" stroke="gray" /><circle cx="845" cy="70" r="3" fill="white" stroke="gray" /><circle cx="855" cy="70" r="3" fill="white" stroke="gray" /><circle cx="865" cy="70" r="3" fill="white" stroke="gray" /><circle cx="875" cy="70" r="3" fill="white" stroke="gray" /><circle cx="885" cy="70" r="3" fill="white" stroke="gray" /><circle cx="895" cy="70" r="3" fill="white" stroke="gray" /><circle cx="905" cy="70" r="3" fill="white" stroke="gray" /><circle cx="915" cy="70" r="3" fill="white" stroke="gray" /><circle cx="925" cy="70" r="3" fill="white" stroke="gray" /><circle cx="935" cy="70" r="3" fill="white" stroke="gray" /><circle cx="945" cy="70" r="3" fill="white" stroke="gray" /><text x="929" y="97" font-family="Pt Sans">2022</text><line x1="945" y1="80" x2="945" y2="73" stroke="gray" /><circle cx="955" cy="70" r="3" fill="white" stroke="gray" /><circle cx="965" cy="70" r="3" fill="white" stroke="gray" /><circle cx="975" cy="70" r="3" fill="white" stroke="gray" /><circle cx="985" cy="70" r="3" fill="white" stroke="gray" /><text x="5" y="35" font-family="Pt Sans">1.0</text><text x="30" y="35" font-family="Pt Sans">1.1</text><text x="85" y="35" font-family="Pt Sans">1.2</text><text x="195" y="35" font-family="Pt Sans">1.3</text><text x="275" y="35" font-family="Pt Sans">1.4</text><text x="335" y="35" font-family="Pt Sans">1.5</text><line x1="14" y1="50" x2="465" y2="50" stroke="firebrick" stroke-linecap="round" stroke-width="20" /><circle cx="15" cy="50" r="5" fill="white" stroke="gray" /><circle cx="15" cy="50" r="2" fill="white" stroke="gray" /><circle cx="15" cy="50" r="2" fill="white" stroke="gray" /><circle cx="35" cy="50" r="5" fill="white" stroke="gray" /><circle cx="35" cy="50" r="2" fill="white" stroke="gray" /><circle cx="95" cy="50" r="2" fill="white" stroke="gray" /><circle cx="115" cy="50" r="2" fill="white" stroke="gray" /><circle cx="125" cy="50" r="2" fill="white" stroke="gray" /><circle cx="35" cy="50" r="2" fill="white" stroke="gray" /><circle cx="35" cy="50" r="2" fill="white" stroke="gray" /><circle cx="45" cy="50" r="2" fill="white" stroke="gray" /><circle cx="55" cy="50" r="2" fill="white" stroke="gray" /><circle cx="65" cy="50" r="2" fill="white" stroke="gray" /><circle cx="65" cy="50" r="2" fill="white" stroke="gray" /><circle cx="75" cy="50" r="2" fill="white" stroke="gray" /><circle cx="85" cy="50" r="2" fill="white" stroke="gray" /><circle cx="95" cy="50" r="5" fill="white" stroke="gray" /><circle cx="105" cy="50" r="2" fill="white" stroke="gray" /><circle cx="115" cy="50" r="2" fill="white" stroke="gray" /><circle cx="125" cy="50" r="2" fill="white" stroke="gray" /><circle cx="155" cy="50" r="2" fill="white" stroke="gray" /><circle cx="165" cy="50" r="2" fill="white" stroke="gray" /><circle cx="185" cy="50" r="2" fill="white" stroke="gray" /><circle cx="195" cy="50" r="2" fill="white" stroke="gray" /><circle cx="215" cy="50" r="2" fill="white" stroke="gray" /><circle cx="205" cy="50" r="5" fill="white" stroke="gray" /><circle cx="215" cy="50" r="2" fill="white" stroke="gray" /><circle cx="225" cy="50" r="2" fill="white" stroke="gray" /><circle cx="235" cy="50" r="2" fill="white" stroke="gray" /><circle cx="265" cy="50" r="2" fill="white" stroke="gray" /><circle cx="265" cy="50" r="2" fill="white" stroke="gray" /><circle cx="285" cy="50" r="2" fill="white" stroke="gray" /><circle cx="285" cy="50" r="2" fill="white" stroke="gray" /><circle cx="305" cy="50" r="2" fill="white" stroke="gray" /><circle cx="285" cy="50" r="5" fill="white" stroke="gray" /><circle cx="305" cy="50" r="2" fill="white" stroke="gray" /><circle cx="325" cy="50" r="2" fill="white" stroke="gray" /><circle cx="335" cy="50" r="2" fill="white" stroke="gray" /><circle cx="345" cy="50" r="2" fill="white" stroke="gray" /><circle cx="365" cy="50" r="2" fill="white" stroke="gray" /><circle cx="375" cy="50" r="2" fill="white" stroke="gray" /><circle cx="395" cy="50" r="2" fill="white" stroke="gray" /><circle cx="345" cy="50" r="5" fill="white" stroke="gray" /><circle cx="345" cy="50" r="2" fill="white" stroke="gray" /><circle cx="465" cy="50" r="2" fill="white" stroke="gray" /><circle cx="495" cy="50" r="2" fill="white" stroke="gray" /><circle cx="495" cy="50" r="2" fill="white" stroke="gray" /><circle cx="505" cy="50" r="2" fill="white" stroke="gray" /><circle cx="515" cy="50" r="2" fill="white" stroke="gray" /><circle cx="525" cy="50" r="2" fill="white" stroke="gray" /><circle cx="545" cy="50" r="2" fill="white" stroke="gray" /><circle cx="555" cy="50" r="2" fill="white" stroke="gray" /><circle cx="565" cy="50" r="2" fill="white" stroke="gray" /><circle cx="585" cy="50" r="2" fill="white" stroke="gray" /><circle cx="365" cy="50" r="2" fill="white" stroke="gray" /><circle cx="615" cy="50" r="2" fill="white" stroke="gray" /><circle cx="625" cy="50" r="2" fill="white" stroke="gray" /><circle cx="655" cy="50" r="2" fill="white" stroke="gray" /><circle cx="375" cy="50" r="2" fill="white" stroke="gray" /><circle cx="395" cy="50" r="2" fill="white" stroke="gray" /><circle cx="405" cy="50" r="2" fill="white" stroke="gray" /><circle cx="405" cy="50" r="2" fill="white" stroke="gray" /><circle cx="425" cy="50" r="2" fill="white" stroke="gray" /><circle cx="435" cy="50" r="2" fill="white" stroke="gray" /><circle cx="445" cy="50" r="2" fill="white" stroke="gray" /><text x="475" y="15" font-family="Pt Sans">2.0</text><text x="545" y="15" font-family="Pt Sans">2.1</text><text x="665" y="15" font-family="Pt Sans">2.2</text><text x="735" y="15" font-family="Pt Sans">2.3</text><text x="795" y="15" font-family="Pt Sans">2.4</text><text x="855" y="15" font-family="Pt Sans">2.5</text><text x="915" y="15" font-family="Pt Sans">2.6</text><line x1="484" y1="30" x2="1002.6666666666666" y2="30" stroke="forestgreen" stroke-linecap="round" stroke-width="20" /><circle cx="485" cy="30" r="5" fill="white" stroke="gray" /><circle cx="495" cy="30" r="2" fill="white" stroke="gray" /><circle cx="505" cy="30" r="2" fill="white" stroke="gray" /><circle cx="515" cy="30" r="2" fill="white" stroke="gray" /><circle cx="525" cy="30" r="2" fill="white" stroke="gray" /><circle cx="545" cy="30" r="2" fill="white" stroke="gray" /><circle cx="555" cy="30" r="2" fill="white" stroke="gray" /><circle cx="565" cy="30" r="2" fill="white" stroke="gray" /><circle cx="585" cy="30" r="2" fill="white" stroke="gray" /><circle cx="615" cy="30" r="2" fill="white" stroke="gray" /><circle cx="555" cy="30" r="5" fill="white" stroke="gray" /><circle cx="565" cy="30" r="2" fill="white" stroke="gray" /><circle cx="685" cy="30" r="2" fill="white" stroke="gray" /><circle cx="695" cy="30" r="2" fill="white" stroke="gray" /><circle cx="705" cy="30" r="2" fill="white" stroke="gray" /><circle cx="715" cy="30" r="2" fill="white" stroke="gray" /><circle cx="745" cy="30" r="2" fill="white" stroke="gray" /><circle cx="755" cy="30" r="2" fill="white" stroke="gray" /><circle cx="765" cy="30" r="2" fill="white" stroke="gray" /><circle cx="785" cy="30" r="2" fill="white" stroke="gray" /><circle cx="795" cy="30" r="2" fill="white" stroke="gray" /><circle cx="585" cy="30" r="2" fill="white" stroke="gray" /><circle cx="595" cy="30" r="2" fill="white" stroke="gray" /><circle cx="615" cy="30" r="2" fill="white" stroke="gray" /><circle cx="625" cy="30" r="2" fill="white" stroke="gray" /><circle cx="635" cy="30" r="2" fill="white" stroke="gray" /><circle cx="655" cy="30" r="2" fill="white" stroke="gray" /><circle cx="665" cy="30" r="2" fill="white" stroke="gray" /><circle cx="675" cy="30" r="2" fill="white" stroke="gray" /><circle cx="675" cy="30" r="5" fill="white" stroke="gray" /><circle cx="685" cy="30" r="2" fill="white" stroke="gray" /><circle cx="785" cy="30" r="2" fill="white" stroke="gray" /><circle cx="795" cy="30" r="2" fill="white" stroke="gray" /><circle cx="815" cy="30" r="2" fill="white" stroke="gray" /><circle cx="825" cy="30" r="2" fill="white" stroke="gray" /><circle cx="695" cy="30" r="2" fill="white" stroke="gray" /><circle cx="705" cy="30" r="2" fill="white" stroke="gray" /><circle cx="705" cy="30" r="2" fill="white" stroke="gray" /><circle cx="715" cy="30" r="2" fill="white" stroke="gray" /><circle cx="725" cy="30" r="2" fill="white" stroke="gray" /><circle cx="745" cy="30" r="2" fill="white" stroke="gray" /><circle cx="755" cy="30" r="2" fill="white" stroke="gray" /><circle cx="765" cy="30" r="2" fill="white" stroke="gray" /><circle cx="745" cy="30" r="5" fill="white" stroke="gray" /><circle cx="755" cy="30" r="2" fill="white" stroke="gray" /><circle cx="855" cy="30" r="2" fill="white" stroke="gray" /><circle cx="865" cy="30" r="2" fill="white" stroke="gray" /><circle cx="875" cy="30" r="2" fill="white" stroke="gray" /><circle cx="765" cy="30" r="2" fill="white" stroke="gray" /><circle cx="775" cy="30" r="2" fill="white" stroke="gray" /><circle cx="785" cy="30" r="2" fill="white" stroke="gray" /><circle cx="795" cy="30" r="2" fill="white" stroke="gray" /><circle cx="805" cy="30" r="2" fill="white" stroke="gray" /><circle cx="815" cy="30" r="2" fill="white" stroke="gray" /><circle cx="825" cy="30" r="2" fill="white" stroke="gray" /><circle cx="835" cy="30" r="2" fill="white" stroke="gray" /><circle cx="805" cy="30" r="5" fill="white" stroke="gray" /><circle cx="815" cy="30" r="2" fill="white" stroke="gray" /><circle cx="895" cy="30" r="2" fill="white" stroke="gray" /><circle cx="905" cy="30" r="2" fill="white" stroke="gray" /><circle cx="915" cy="30" r="2" fill="white" stroke="gray" /><circle cx="925" cy="30" r="2" fill="white" stroke="gray" /><circle cx="825" cy="30" r="2" fill="white" stroke="gray" /><circle cx="835" cy="30" r="2" fill="white" stroke="gray" /><circle cx="845" cy="30" r="2" fill="white" stroke="gray" /><circle cx="855" cy="30" r="2" fill="white" stroke="gray" /><circle cx="865" cy="30" r="2" fill="white" stroke="gray" /><circle cx="875" cy="30" r="2" fill="white" stroke="gray" /><circle cx="875" cy="30" r="2" fill="white" stroke="gray" /><circle cx="885" cy="30" r="2" fill="white" stroke="gray" /><circle cx="865" cy="30" r="5" fill="white" stroke="gray" /><circle cx="875" cy="30" r="2" fill="white" stroke="gray" /><circle cx="955" cy="30" r="2" fill="white" stroke="gray" /><circle cx="875" cy="30" r="2" fill="white" stroke="gray" /><circle cx="885" cy="30" r="2" fill="white" stroke="gray" /><circle cx="895" cy="30" r="2" fill="white" stroke="gray" /><circle cx="905" cy="30" r="2" fill="white" stroke="gray" /><circle cx="915" cy="30" r="2" fill="white" stroke="gray" /><circle cx="925" cy="30" r="2" fill="white" stroke="gray" /><circle cx="935" cy="30" r="2" fill="white" stroke="gray" /><circle cx="945" cy="30" r="2" fill="white" stroke="gray" /><circle cx="925" cy="30" r="5" fill="white" stroke="gray" /><circle cx="925" cy="30" r="2" fill="white" stroke="gray" /><circle cx="935" cy="30" r="2" fill="white" stroke="gray" /><circle cx="945" cy="30" r="2" fill="white" stroke="gray" /><circle cx="955" cy="30" r="2" fill="white" stroke="gray" /></svg>