<svg xmlns="http://www.w3.org/2000/svg" viewBox="0 0 1039 100"><line x1="10" y1="70" x2="1039" y2="70" stroke="gray" /><text x="10" y="90">Spring Boot Version History, scraped at 6.1.2022, 14:22:38</text><circle cx="10" cy="70" r="3" fill="lime" stroke="white" /><line x1="0" y1="70" x2="0" y2="70" stroke="gray" /><text x="5" y="40">1</text><circle cx="17" cy="70" r="3" fill="gray" stroke="white" /><circle cx="24" cy="70" r="3" fill="gray" stroke="white" /><circle cx="31" cy="70" r="3" fill="orange" stroke="white" /><circle cx="38" cy="70" r="3" fill="gray" stroke="white" /><circle cx="45" cy="70" r="3" fill="gray" stroke="white" /><circle cx="52" cy="70" r="3" fill="gray" stroke="white" /><circle cx="59" cy="70" r="3" fill="gray" stroke="white" /><circle cx="66" cy="70" r="3" fill="gray" stroke="white" /><circle cx="73" cy="70" r="3" fill="gray" stroke="white" /><circle cx="80" cy="70" r="3" fill="gray" stroke="white" /><circle cx="87" cy="70" r="3" fill="gray" stroke="white" /><circle cx="94" cy="70" r="3" fill="gray" stroke="white" /><circle cx="101" cy="70" r="3" fill="gray" stroke="white" /><circle cx="108" cy="70" r="3" fill="gray" stroke="white" /><circle cx="115" cy="70" r="3" fill="gray" stroke="white" /><circle cx="122" cy="70" r="3" fill="orange" stroke="white" /><circle cx="129" cy="70" r="3" fill="gray" stroke="white" /><circle cx="136" cy="70" r="3" fill="gray" stroke="white" /><circle cx="143" cy="70" r="3" fill="gray" stroke="white" /><circle cx="150" cy="70" r="3" fill="gray" stroke="white" /><circle cx="157" cy="70" r="3" fill="gray" stroke="white" /><circle cx="164" cy="70" r="3" fill="gray" stroke="white" /><circle cx="171" cy="70" r="3" fill="gray" stroke="white" /><circle cx="178" cy="70" r="3" fill="gray" stroke="white" /><circle cx="185" cy="70" r="3" fill="orange" stroke="white" /><circle cx="192" cy="70" r="3" fill="gray" stroke="white" /><circle cx="199" cy="70" r="3" fill="gray" stroke="white" /><circle cx="206" cy="70" r="3" fill="gray" stroke="white" /><circle cx="213" cy="70" r="3" fill="gray" stroke="white" /><circle cx="220" cy="70" r="3" fill="gray" stroke="white" /><circle cx="227" cy="70" r="3" fill="gray" stroke="white" /><circle cx="234" cy="70" r="3" fill="gray" stroke="white" /><circle cx="241" cy="70" r="3" fill="gray" stroke="white" /><circle cx="248" cy="70" r="3" fill="orange" stroke="white" /><circle cx="255" cy="70" r="3" fill="gray" stroke="white" /><circle cx="262" cy="70" r="3" fill="gray" stroke="white" /><circle cx="269" cy="70" r="3" fill="gray" stroke="white" /><circle cx="276" cy="70" r="3" fill="gray" stroke="white" /><circle cx="283" cy="70" r="3" fill="gray" stroke="white" /><circle cx="290" cy="70" r="3" fill="gray" stroke="white" /><circle cx="297" cy="70" r="3" fill="gray" stroke="white" /><circle cx="304" cy="70" r="3" fill="orange" stroke="white" /><circle cx="311" cy="70" r="3" fill="gray" stroke="white" /><circle cx="318" cy="70" r="3" fill="gray" stroke="white" /><circle cx="325" cy="70" r="3" fill="gray" stroke="white" /><circle cx="332" cy="70" r="3" fill="gray" stroke="white" /><circle cx="339" cy="70" r="3" fill="gray" stroke="white" /><circle cx="346" cy="70" r="3" fill="gray" stroke="white" /><circle cx="353" cy="70" r="3" fill="gray" stroke="white" /><circle cx="360" cy="70" r="3" fill="gray" stroke="white" /><circle cx="367" cy="70" r="3" fill="gray" stroke="white" /><circle cx="374" cy="70" r="3" fill="gray" stroke="white" /><circle cx="381" cy="70" r="3" fill="gray" stroke="white" /><circle cx="388" cy="70" r="3" fill="gray" stroke="white" /><circle cx="395" cy="70" r="3" fill="gray" stroke="white" /><circle cx="402" cy="70" r="3" fill="gray" stroke="white" /><circle cx="409" cy="70" r="3" fill="gray" stroke="white" /><circle cx="416" cy="70" r="3" fill="gray" stroke="white" /><circle cx="423" cy="70" r="3" fill="gray" stroke="white" /><circle cx="430" cy="70" r="3" fill="gray" stroke="white" /><circle cx="437" cy="70" r="3" fill="gray" stroke="white" /><circle cx="444" cy="70" r="3" fill="gray" stroke="white" /><circle cx="451" cy="70" r="3" fill="gray" stroke="white" /><circle cx="458" cy="70" r="3" fill="gray" stroke="white" /><circle cx="465" cy="70" r="3" fill="lime" stroke="white" /><line x1="10" y1="50" x2="465" y2="50" stroke="gray" /><text x="470" y="20">2</text><circle cx="472" cy="70" r="3" fill="gray" stroke="white" /><circle cx="479" cy="70" r="3" fill="gray" stroke="white" /><circle cx="486" cy="70" r="3" fill="gray" stroke="white" /><circle cx="493" cy="70" r="3" fill="gray" stroke="white" /><circle cx="500" cy="70" r="3" fill="gray" stroke="white" /><circle cx="507" cy="70" r="3" fill="gray" stroke="white" /><circle cx="514" cy="70" r="3" fill="gray" stroke="white" /><circle cx="521" cy="70" r="3" fill="gray" stroke="white" /><circle cx="528" cy="70" r="3" fill="gray" stroke="white" /><circle cx="535" cy="70" r="3" fill="orange" stroke="white" /><circle cx="542" cy="70" r="3" fill="gray" stroke="white" /><circle cx="549" cy="70" r="3" fill="gray" stroke="white" /><circle cx="556" cy="70" r="3" fill="gray" stroke="white" /><circle cx="563" cy="70" r="3" fill="gray" stroke="white" /><circle cx="570" cy="70" r="3" fill="gray" stroke="white" /><circle cx="577" cy="70" r="3" fill="gray" stroke="white" /><circle cx="584" cy="70" r="3" fill="gray" stroke="white" /><circle cx="591" cy="70" r="3" fill="gray" stroke="white" /><circle cx="598" cy="70" r="3" fill="gray" stroke="white" /><circle cx="605" cy="70" r="3" fill="gray" stroke="white" /><circle cx="612" cy="70" r="3" fill="gray" stroke="white" /><circle cx="619" cy="70" r="3" fill="gray" stroke="white" /><circle cx="626" cy="70" r="3" fill="gray" stroke="white" /><circle cx="633" cy="70" r="3" fill="gray" stroke="white" /><circle cx="640" cy="70" r="3" fill="gray" stroke="white" /><circle cx="647" cy="70" r="3" fill="gray" stroke="white" /><circle cx="654" cy="70" r="3" fill="gray" stroke="white" /><circle cx="661" cy="70" r="3" fill="gray" stroke="white" /><circle cx="668" cy="70" r="3" fill="orange" stroke="white" /><circle cx="675" cy="70" r="3" fill="gray" stroke="white" /><circle cx="682" cy="70" r="3" fill="gray" stroke="white" /><circle cx="689" cy="70" r="3" fill="gray" stroke="white" /><circle cx="696" cy="70" r="3" fill="gray" stroke="white" /><circle cx="703" cy="70" r="3" fill="gray" stroke="white" /><circle cx="710" cy="70" r="3" fill="gray" stroke="white" /><circle cx="717" cy="70" r="3" fill="gray" stroke="white" /><circle cx="724" cy="70" r="3" fill="gray" stroke="white" /><circle cx="731" cy="70" r="3" fill="gray" stroke="white" /><circle cx="738" cy="70" r="3" fill="gray" stroke="white" /><circle cx="745" cy="70" r="3" fill="gray" stroke="white" /><circle cx="752" cy="70" r="3" fill="gray" stroke="white" /><circle cx="759" cy="70" r="3" fill="gray" stroke="white" /><circle cx="766" cy="70" r="3" fill="orange" stroke="white" /><circle cx="773" cy="70" r="3" fill="gray" stroke="white" /><circle cx="780" cy="70" r="3" fill="gray" stroke="white" /><circle cx="787" cy="70" r="3" fill="gray" stroke="white" /><circle cx="794" cy="70" r="3" fill="gray" stroke="white" /><circle cx="801" cy="70" r="3" fill="gray" stroke="white" /><circle cx="808" cy="70" r="3" fill="gray" stroke="white" /><circle cx="815" cy="70" r="3" fill="gray" stroke="white" /><circle cx="822" cy="70" r="3" fill="gray" stroke="white" /><circle cx="829" cy="70" r="3" fill="gray" stroke="white" /><circle cx="836" cy="70" r="3" fill="gray" stroke="white" /><circle cx="843" cy="70" r="3" fill="gray" stroke="white" /><circle cx="850" cy="70" r="3" fill="gray" stroke="white" /><circle cx="857" cy="70" r="3" fill="orange" stroke="white" /><circle cx="864" cy="70" r="3" fill="gray" stroke="white" /><circle cx="871" cy="70" r="3" fill="gray" stroke="white" /><circle cx="878" cy="70" r="3" fill="gray" stroke="white" /><circle cx="885" cy="70" r="3" fill="gray" stroke="white" /><circle cx="892" cy="70" r="3" fill="gray" stroke="white" /><circle cx="899" cy="70" r="3" fill="gray" stroke="white" /><circle cx="906" cy="70" r="3" fill="gray" stroke="white" /><circle cx="913" cy="70" r="3" fill="gray" stroke="white" /><circle cx="920" cy="70" r="3" fill="gray" stroke="white" /><circle cx="927" cy="70" r="3" fill="gray" stroke="white" /><circle cx="934" cy="70" r="3" fill="gray" stroke="white" /><circle cx="941" cy="70" r="3" fill="gray" stroke="white" /><circle cx="948" cy="70" r="3" fill="gray" stroke="white" /><circle cx="955" cy="70" r="3" fill="orange" stroke="white" /><circle cx="962" cy="70" r="3" fill="gray" stroke="white" /><circle cx="969" cy="70" r="3" fill="gray" stroke="white" /><circle cx="976" cy="70" r="3" fill="gray" stroke="white" /><circle cx="983" cy="70" r="3" fill="gray" stroke="white" /><circle cx="990" cy="70" r="3" fill="gray" stroke="white" /><circle cx="997" cy="70" r="3" fill="gray" stroke="white" /><circle cx="1004" cy="70" r="3" fill="gray" stroke="white" /><circle cx="1011" cy="70" r="3" fill="gray" stroke="white" /><circle cx="1018" cy="70" r="3" fill="orange" stroke="white" /><circle cx="1025" cy="70" r="3" fill="gray" stroke="white" /><circle cx="1032" cy="70" r="3" fill="gray" stroke="white" /><line x1="465" y1="30" x2="1487" y2="30" stroke="gray" /></svg>