<svg xmlns="http://www.w3.org/2000/svg" viewBox="0 0 960.3333333333334 100"><line x1="10" y1="70" x2="950.3333333333334" y2="70" stroke="gray" /><circle cx="10" cy="70" r="3" fill="white" stroke="gray" /><circle cx="20" cy="70" r="3" fill="white" stroke="gray" /><text x="5" y="97" font-family="Arial">2014</text><line x1="10" y1="80" x2="10" y2="73" stroke="gray" /><circle cx="30" cy="70" r="3" fill="white" stroke="gray" /><circle cx="40" cy="70" r="3" fill="white" stroke="gray" /><circle cx="50" cy="70" r="3" fill="white" stroke="gray" /><circle cx="60" cy="70" r="3" fill="white" stroke="gray" /><circle cx="70" cy="70" r="3" fill="white" stroke="gray" /><circle cx="80" cy="70" r="3" fill="white" stroke="gray" /><circle cx="90" cy="70" r="3" fill="white" stroke="gray" /><circle cx="100" cy="70" r="3" fill="white" stroke="gray" /><circle cx="110" cy="70" r="3" fill="white" stroke="gray" /><circle cx="120" cy="70" r="3" fill="white" stroke="gray" /><text x="104" y="97" font-family="Arial">2015</text><line x1="120" y1="80" x2="120" y2="73" stroke="gray" /><circle cx="130" cy="70" r="3" fill="white" stroke="gray" /><circle cx="140" cy="70" r="3" fill="white" stroke="gray" /><circle cx="150" cy="70" r="3" fill="white" stroke="gray" /><circle cx="160" cy="70" r="3" fill="white" stroke="gray" /><circle cx="170" cy="70" r="3" fill="white" stroke="gray" /><circle cx="180" cy="70" r="3" fill="white" stroke="gray" /><circle cx="190" cy="70" r="3" fill="white" stroke="gray" /><circle cx="200" cy="70" r="3" fill="white" stroke="gray" /><circle cx="210" cy="70" r="3" fill="white" stroke="gray" /><circle cx="220" cy="70" r="3" fill="white" stroke="gray" /><circle cx="230" cy="70" r="3" fill="white" stroke="gray" /><circle cx="240" cy="70" r="3" fill="white" stroke="gray" /><text x="224" y="97" font-family="Arial">2016</text><line x1="240" y1="80" x2="240" y2="73" stroke="gray" /><circle cx="250" cy="70" r="3" fill="white" stroke="gray" /><circle cx="260" cy="70" r="3" fill="white" stroke="gray" /><circle cx="270" cy="70" r="3" fill="white" stroke="gray" /><circle cx="280" cy="70" r="3" fill="white" stroke="gray" /><circle cx="290" cy="70" r="3" fill="white" stroke="gray" /><circle cx="300" cy="70" r="3" fill="white" stroke="gray" /><circle cx="310" cy="70" r="3" fill="white" stroke="gray" /><circle cx="320" cy="70" r="3" fill="white" stroke="gray" /><circle cx="330" cy="70" r="3" fill="white" stroke="gray" /><circle cx="340" cy="70" r="3" fill="white" stroke="gray" /><circle cx="350" cy="70" r="3" fill="white" stroke="gray" /><circle cx="360" cy="70" r="3" fill="white" stroke="gray" /><text x="344" y="97" font-family="Arial">2017</text><line x1="360" y1="80" x2="360" y2="73" stroke="gray" /><circle cx="370" cy="70" r="3" fill="white" stroke="gray" /><circle cx="380" cy="70" r="3" fill="white" stroke="gray" /><circle cx="390" cy="70" r="3" fill="white" stroke="gray" /><circle cx="400" cy="70" r="3" fill="white" stroke="gray" /><circle cx="410" cy="70" r="3" fill="white" stroke="gray" /><circle cx="420" cy="70" r="3" fill="white" stroke="gray" /><circle cx="430" cy="70" r="3" fill="white" stroke="gray" /><circle cx="440" cy="70" r="3" fill="white" stroke="gray" /><circle cx="450" cy="70" r="3" fill="white" stroke="gray" /><circle cx="460" cy="70" r="3" fill="white" stroke="gray" /><circle cx="470" cy="70" r="3" fill="white" stroke="gray" /><circle cx="480" cy="70" r="3" fill="white" stroke="gray" /><text x="464" y="97" font-family="Arial">2018</text><line x1="480" y1="80" x2="480" y2="73" stroke="gray" /><circle cx="490" cy="70" r="3" fill="white" stroke="gray" /><circle cx="500" cy="70" r="3" fill="white" stroke="gray" /><circle cx="510" cy="70" r="3" fill="white" stroke="gray" /><circle cx="520" cy="70" r="3" fill="white" stroke="gray" /><circle cx="530" cy="70" r="3" fill="white" stroke="gray" /><circle cx="540" cy="70" r="3" fill="white" stroke="gray" /><circle cx="550" cy="70" r="3" fill="white" stroke="gray" /><circle cx="560" cy="70" r="3" fill="white" stroke="gray" /><circle cx="570" cy="70" r="3" fill="white" stroke="gray" /><circle cx="580" cy="70" r="3" fill="white" stroke="gray" /><circle cx="590" cy="70" r="3" fill="white" stroke="gray" /><circle cx="600" cy="70" r="3" fill="white" stroke="gray" /><text x="584" y="97" font-family="Arial">2019</text><line x1="600" y1="80" x2="600" y2="73" stroke="gray" /><circle cx="610" cy="70" r="3" fill="white" stroke="gray" /><circle cx="620" cy="70" r="3" fill="white" stroke="gray" /><circle cx="630" cy="70" r="3" fill="white" stroke="gray" /><circle cx="640" cy="70" r="3" fill="white" stroke="gray" /><circle cx="650" cy="70" r="3" fill="white" stroke="gray" /><circle cx="660" cy="70" r="3" fill="white" stroke="gray" /><circle cx="670" cy="70" r="3" fill="white" stroke="gray" /><circle cx="680" cy="70" r="3" fill="white" stroke="gray" /><circle cx="690" cy="70" r="3" fill="white" stroke="gray" /><circle cx="700" cy="70" r="3" fill="white" stroke="gray" /><circle cx="710" cy="70" r="3" fill="white" stroke="gray" /><circle cx="720" cy="70" r="3" fill="white" stroke="gray" /><circle cx="730" cy="70" r="3" fill="white" stroke="gray" /><text x="714" y="97" font-family="Arial">2020</text><line x1="730" y1="80" x2="730" y2="73" stroke="gray" /><circle cx="740" cy="70" r="3" fill="white" stroke="gray" /><circle cx="750" cy="70" r="3" fill="white" stroke="gray" /><circle cx="760" cy="70" r="3" fill="white" stroke="gray" /><circle cx="770" cy="70" r="3" fill="white" stroke="gray" /><circle cx="780" cy="70" r="3" fill="white" stroke="gray" /><circle cx="790" cy="70" r="3" fill="white" stroke="gray" /><circle cx="800" cy="70" r="3" fill="white" stroke="gray" /><circle cx="810" cy="70" r="3" fill="white" stroke="gray" /><circle cx="820" cy="70" r="3" fill="white" stroke="gray" /><circle cx="830" cy="70" r="3" fill="white" stroke="gray" /><circle cx="840" cy="70" r="3" fill="white" stroke="gray" /><circle cx="850" cy="70" r="3" fill="white" stroke="gray" /><text x="834" y="97" font-family="Arial">2021</text><line x1="850" y1="80" x2="850" y2="73" stroke="gray" /><circle cx="860" cy="70" r="3" fill="white" stroke="gray" /><circle cx="870" cy="70" r="3" fill="white" stroke="gray" /><circle cx="880" cy="70" r="3" fill="white" stroke="gray" /><circle cx="890" cy="70" r="3" fill="white" stroke="gray" /><circle cx="900" cy="70" r="3" fill="white" stroke="gray" /><circle cx="910" cy="70" r="3" fill="white" stroke="gray" /><circle cx="920" cy="70" r="3" fill="white" stroke="gray" /><circle cx="930" cy="70" r="3" fill="white" stroke="gray" /><circle cx="940" cy="70" r="3" fill="white" stroke="gray" /><circle cx="950" cy="70" r="3" fill="white" stroke="gray" /><circle cx="960" cy="70" r="3" fill="white" stroke="gray" /><circle cx="20" cy="50" r="5" fill="firebrick" stroke="white" /><text x="10" y="35" font-family="Arial">1.0</text><circle cx="41" cy="50" r="5" fill="firebrick" stroke="white" /><text x="31" y="35" font-family="Arial">1.1</text><circle cx="102.33333333333333" cy="50" r="5" fill="firebrick" stroke="white" /><text x="92.33333333333333" y="35" font-family="Arial">1.2</text><circle cx="213.33333333333334" cy="50" r="5" fill="firebrick" stroke="white" /><text x="203.33333333333334" y="35" font-family="Arial">1.3</text><circle cx="296" cy="50" r="5" fill="firebrick" stroke="white" /><text x="286" y="35" font-family="Arial">1.4</text><circle cx="355.6666666666667" cy="50" r="5" fill="firebrick" stroke="white" /><text x="345.6666666666667" y="35" font-family="Arial">1.5</text><circle cx="496.6666666666667" cy="50" r="5" fill="firebrick" stroke="white" /><text x="486.6666666666667" y="35" font-family="Arial">2.0</text><circle cx="568.3333333333334" cy="30" r="5" fill="forestgreen" stroke="white" /><text x="558.3333333333334" y="15" font-family="Arial">2.1</text><circle cx="690" cy="30" r="5" fill="forestgreen" stroke="white" /><text x="680" y="15" font-family="Arial">2.2</text><circle cx="760.6666666666666" cy="30" r="5" fill="forestgreen" stroke="white" /><text x="750.6666666666666" y="15" font-family="Arial">2.3</text><circle cx="823.3333333333334" cy="30" r="5" fill="forestgreen" stroke="white" /><text x="813.3333333333334" y="15" font-family="Arial">2.4</text><circle cx="884" cy="30" r="5" fill="forestgreen" stroke="white" /><text x="874" y="15" font-family="Arial">2.5</text><circle cx="945" cy="30" r="5" fill="forestgreen" stroke="white" /><text x="935" y="15" font-family="Arial">2.6</text></svg>