<svg xmlns="http://www.w3.org/2000/svg" viewBox="0 0 976.6666666666666 100"><line x1="10" y1="70" x2="973.6666666666666" y2="70" stroke="gray" /><circle cx="10" cy="70" r="3" fill="white" stroke="gray" /><circle cx="20" cy="70" r="3" fill="white" stroke="gray" /><text x="5" y="97" font-family="Arial">2014</text><line x1="10" y1="80" x2="10" y2="73" stroke="gray" /><circle cx="30" cy="70" r="3" fill="white" stroke="gray" /><circle cx="40" cy="70" r="3" fill="white" stroke="gray" /><circle cx="50" cy="70" r="3" fill="white" stroke="gray" /><circle cx="60" cy="70" r="3" fill="white" stroke="gray" /><circle cx="70" cy="70" r="3" fill="white" stroke="gray" /><circle cx="80" cy="70" r="3" fill="white" stroke="gray" /><circle cx="90" cy="70" r="3" fill="white" stroke="gray" /><circle cx="100" cy="70" r="3" fill="white" stroke="gray" /><circle cx="110" cy="70" r="3" fill="white" stroke="gray" /><text x="94" y="97" font-family="Arial">2015</text><line x1="110" y1="80" x2="110" y2="73" stroke="gray" /><circle cx="120" cy="70" r="3" fill="white" stroke="gray" /><circle cx="130" cy="70" r="3" fill="white" stroke="gray" /><circle cx="140" cy="70" r="3" fill="white" stroke="gray" /><circle cx="150" cy="70" r="3" fill="white" stroke="gray" /><circle cx="160" cy="70" r="3" fill="white" stroke="gray" /><circle cx="170" cy="70" r="3" fill="white" stroke="gray" /><circle cx="180" cy="70" r="3" fill="white" stroke="gray" /><circle cx="190" cy="70" r="3" fill="white" stroke="gray" /><circle cx="200" cy="70" r="3" fill="white" stroke="gray" /><circle cx="210" cy="70" r="3" fill="white" stroke="gray" /><circle cx="220" cy="70" r="3" fill="white" stroke="gray" /><circle cx="230" cy="70" r="3" fill="white" stroke="gray" /><text x="214" y="97" font-family="Arial">2016</text><line x1="230" y1="80" x2="230" y2="73" stroke="gray" /><circle cx="240" cy="70" r="3" fill="white" stroke="gray" /><circle cx="250" cy="70" r="3" fill="white" stroke="gray" /><circle cx="260" cy="70" r="3" fill="white" stroke="gray" /><circle cx="270" cy="70" r="3" fill="white" stroke="gray" /><circle cx="280" cy="70" r="3" fill="white" stroke="gray" /><circle cx="290" cy="70" r="3" fill="white" stroke="gray" /><circle cx="300" cy="70" r="3" fill="white" stroke="gray" /><circle cx="310" cy="70" r="3" fill="white" stroke="gray" /><circle cx="320" cy="70" r="3" fill="white" stroke="gray" /><circle cx="330" cy="70" r="3" fill="white" stroke="gray" /><circle cx="340" cy="70" r="3" fill="white" stroke="gray" /><circle cx="350" cy="70" r="3" fill="white" stroke="gray" /><text x="334" y="97" font-family="Arial">2017</text><line x1="350" y1="80" x2="350" y2="73" stroke="gray" /><circle cx="360" cy="70" r="3" fill="white" stroke="gray" /><circle cx="370" cy="70" r="3" fill="white" stroke="gray" /><circle cx="380" cy="70" r="3" fill="white" stroke="gray" /><circle cx="390" cy="70" r="3" fill="white" stroke="gray" /><circle cx="400" cy="70" r="3" fill="white" stroke="gray" /><circle cx="410" cy="70" r="3" fill="white" stroke="gray" /><circle cx="420" cy="70" r="3" fill="white" stroke="gray" /><circle cx="430" cy="70" r="3" fill="white" stroke="gray" /><circle cx="440" cy="70" r="3" fill="white" stroke="gray" /><circle cx="450" cy="70" r="3" fill="white" stroke="gray" /><circle cx="460" cy="70" r="3" fill="white" stroke="gray" /><circle cx="470" cy="70" r="3" fill="white" stroke="gray" /><text x="454" y="97" font-family="Arial">2018</text><line x1="470" y1="80" x2="470" y2="73" stroke="gray" /><circle cx="480" cy="70" r="3" fill="white" stroke="gray" /><circle cx="490" cy="70" r="3" fill="white" stroke="gray" /><circle cx="500" cy="70" r="3" fill="white" stroke="gray" /><circle cx="510" cy="70" r="3" fill="white" stroke="gray" /><circle cx="520" cy="70" r="3" fill="white" stroke="gray" /><circle cx="530" cy="70" r="3" fill="white" stroke="gray" /><circle cx="540" cy="70" r="3" fill="white" stroke="gray" /><circle cx="550" cy="70" r="3" fill="white" stroke="gray" /><circle cx="560" cy="70" r="3" fill="white" stroke="gray" /><circle cx="570" cy="70" r="3" fill="white" stroke="gray" /><circle cx="580" cy="70" r="3" fill="white" stroke="gray" /><text x="564" y="97" font-family="Arial">2019</text><line x1="580" y1="80" x2="580" y2="73" stroke="gray" /><circle cx="590" cy="70" r="3" fill="white" stroke="gray" /><circle cx="600" cy="70" r="3" fill="white" stroke="gray" /><circle cx="610" cy="70" r="3" fill="white" stroke="gray" /><circle cx="620" cy="70" r="3" fill="white" stroke="gray" /><circle cx="630" cy="70" r="3" fill="white" stroke="gray" /><circle cx="640" cy="70" r="3" fill="white" stroke="gray" /><circle cx="650" cy="70" r="3" fill="white" stroke="gray" /><circle cx="660" cy="70" r="3" fill="white" stroke="gray" /><circle cx="670" cy="70" r="3" fill="white" stroke="gray" /><circle cx="680" cy="70" r="3" fill="white" stroke="gray" /><circle cx="690" cy="70" r="3" fill="white" stroke="gray" /><circle cx="700" cy="70" r="3" fill="white" stroke="gray" /><text x="684" y="97" font-family="Arial">2020</text><line x1="700" y1="80" x2="700" y2="73" stroke="gray" /><circle cx="710" cy="70" r="3" fill="white" stroke="gray" /><circle cx="720" cy="70" r="3" fill="white" stroke="gray" /><circle cx="730" cy="70" r="3" fill="white" stroke="gray" /><circle cx="740" cy="70" r="3" fill="white" stroke="gray" /><circle cx="750" cy="70" r="3" fill="white" stroke="gray" /><circle cx="760" cy="70" r="3" fill="white" stroke="gray" /><circle cx="770" cy="70" r="3" fill="white" stroke="gray" /><circle cx="780" cy="70" r="3" fill="white" stroke="gray" /><circle cx="790" cy="70" r="3" fill="white" stroke="gray" /><circle cx="800" cy="70" r="3" fill="white" stroke="gray" /><circle cx="810" cy="70" r="3" fill="white" stroke="gray" /><circle cx="820" cy="70" r="3" fill="white" stroke="gray" /><text x="804" y="97" font-family="Arial">2021</text><line x1="820" y1="80" x2="820" y2="73" stroke="gray" /><circle cx="830" cy="70" r="3" fill="white" stroke="gray" /><circle cx="840" cy="70" r="3" fill="white" stroke="gray" /><circle cx="850" cy="70" r="3" fill="white" stroke="gray" /><circle cx="860" cy="70" r="3" fill="white" stroke="gray" /><circle cx="870" cy="70" r="3" fill="white" stroke="gray" /><circle cx="880" cy="70" r="3" fill="white" stroke="gray" /><circle cx="890" cy="70" r="3" fill="white" stroke="gray" /><circle cx="900" cy="70" r="3" fill="white" stroke="gray" /><circle cx="910" cy="70" r="3" fill="white" stroke="gray" /><circle cx="920" cy="70" r="3" fill="white" stroke="gray" /><circle cx="930" cy="70" r="3" fill="white" stroke="gray" /><circle cx="940" cy="70" r="3" fill="white" stroke="gray" /><text x="924" y="97" font-family="Arial">2022</text><line x1="940" y1="80" x2="940" y2="73" stroke="gray" /><circle cx="950" cy="70" r="3" fill="white" stroke="gray" /><circle cx="960" cy="70" r="3" fill="white" stroke="gray" /><circle cx="970" cy="70" r="3" fill="white" stroke="gray" /><text x="10" y="35" font-family="Arial">1.0</text><text x="30" y="35" font-family="Arial">1.1</text><text x="90" y="35" font-family="Arial">1.2</text><text x="200" y="35" font-family="Arial">1.3</text><text x="280" y="35" font-family="Arial">1.4</text><text x="340" y="35" font-family="Arial">1.5</text><line x1="19" y1="50" x2="470" y2="50" stroke="firebrick" stroke-linecap="round" stroke-width="20" /><circle cx="20" cy="50" r="5" fill="white" stroke="gray" /><circle cx="20" cy="50" r="2" fill="white" stroke="gray" /><circle cx="20" cy="50" r="2" fill="white" stroke="gray" /><circle cx="40" cy="50" r="5" fill="white" stroke="gray" /><circle cx="40" cy="50" r="2" fill="white" stroke="gray" /><circle cx="100" cy="50" r="2" fill="white" stroke="gray" /><circle cx="120" cy="50" r="2" fill="white" stroke="gray" /><circle cx="130" cy="50" r="2" fill="white" stroke="gray" /><circle cx="40" cy="50" r="2" fill="white" stroke="gray" /><circle cx="40" cy="50" r="2" fill="white" stroke="gray" /><circle cx="50" cy="50" r="2" fill="white" stroke="gray" /><circle cx="60" cy="50" r="2" fill="white" stroke="gray" /><circle cx="70" cy="50" r="2" fill="white" stroke="gray" /><circle cx="70" cy="50" r="2" fill="white" stroke="gray" /><circle cx="80" cy="50" r="2" fill="white" stroke="gray" /><circle cx="90" cy="50" r="2" fill="white" stroke="gray" /><circle cx="100" cy="50" r="5" fill="white" stroke="gray" /><circle cx="110" cy="50" r="2" fill="white" stroke="gray" /><circle cx="120" cy="50" r="2" fill="white" stroke="gray" /><circle cx="130" cy="50" r="2" fill="white" stroke="gray" /><circle cx="160" cy="50" r="2" fill="white" stroke="gray" /><circle cx="170" cy="50" r="2" fill="white" stroke="gray" /><circle cx="190" cy="50" r="2" fill="white" stroke="gray" /><circle cx="200" cy="50" r="2" fill="white" stroke="gray" /><circle cx="220" cy="50" r="2" fill="white" stroke="gray" /><circle cx="210" cy="50" r="5" fill="white" stroke="gray" /><circle cx="220" cy="50" r="2" fill="white" stroke="gray" /><circle cx="230" cy="50" r="2" fill="white" stroke="gray" /><circle cx="240" cy="50" r="2" fill="white" stroke="gray" /><circle cx="270" cy="50" r="2" fill="white" stroke="gray" /><circle cx="270" cy="50" r="2" fill="white" stroke="gray" /><circle cx="290" cy="50" r="2" fill="white" stroke="gray" /><circle cx="290" cy="50" r="2" fill="white" stroke="gray" /><circle cx="310" cy="50" r="2" fill="white" stroke="gray" /><circle cx="290" cy="50" r="5" fill="white" stroke="gray" /><circle cx="310" cy="50" r="2" fill="white" stroke="gray" /><circle cx="330" cy="50" r="2" fill="white" stroke="gray" /><circle cx="340" cy="50" r="2" fill="white" stroke="gray" /><circle cx="350" cy="50" r="2" fill="white" stroke="gray" /><circle cx="370" cy="50" r="2" fill="white" stroke="gray" /><circle cx="380" cy="50" r="2" fill="white" stroke="gray" /><circle cx="400" cy="50" r="2" fill="white" stroke="gray" /><circle cx="350" cy="50" r="5" fill="white" stroke="gray" /><circle cx="350" cy="50" r="2" fill="white" stroke="gray" /><circle cx="470" cy="50" r="2" fill="white" stroke="gray" /><circle cx="500" cy="50" r="2" fill="white" stroke="gray" /><circle cx="500" cy="50" r="2" fill="white" stroke="gray" /><circle cx="510" cy="50" r="2" fill="white" stroke="gray" /><circle cx="520" cy="50" r="2" fill="white" stroke="gray" /><circle cx="530" cy="50" r="2" fill="white" stroke="gray" /><circle cx="550" cy="50" r="2" fill="white" stroke="gray" /><circle cx="560" cy="50" r="2" fill="white" stroke="gray" /><circle cx="570" cy="50" r="2" fill="white" stroke="gray" /><circle cx="590" cy="50" r="2" fill="white" stroke="gray" /><circle cx="370" cy="50" r="2" fill="white" stroke="gray" /><circle cx="620" cy="50" r="2" fill="white" stroke="gray" /><circle cx="630" cy="50" r="2" fill="white" stroke="gray" /><circle cx="660" cy="50" r="2" fill="white" stroke="gray" /><circle cx="380" cy="50" r="2" fill="white" stroke="gray" /><circle cx="400" cy="50" r="2" fill="white" stroke="gray" /><circle cx="410" cy="50" r="2" fill="white" stroke="gray" /><circle cx="410" cy="50" r="2" fill="white" stroke="gray" /><circle cx="430" cy="50" r="2" fill="white" stroke="gray" /><circle cx="440" cy="50" r="2" fill="white" stroke="gray" /><circle cx="450" cy="50" r="2" fill="white" stroke="gray" /><text x="480" y="15" font-family="Arial">2.0</text><text x="550" y="15" font-family="Arial">2.1</text><text x="670" y="15" font-family="Arial">2.2</text><text x="740" y="15" font-family="Arial">2.3</text><text x="800" y="15" font-family="Arial">2.4</text><text x="860" y="15" font-family="Arial">2.5</text><text x="920" y="15" font-family="Arial">2.6</text><line x1="489" y1="30" x2="988.6666666666666" y2="30" stroke="forestgreen" stroke-linecap="round" stroke-width="20" /><circle cx="490" cy="30" r="5" fill="white" stroke="gray" /><circle cx="500" cy="30" r="2" fill="white" stroke="gray" /><circle cx="510" cy="30" r="2" fill="white" stroke="gray" /><circle cx="520" cy="30" r="2" fill="white" stroke="gray" /><circle cx="530" cy="30" r="2" fill="white" stroke="gray" /><circle cx="550" cy="30" r="2" fill="white" stroke="gray" /><circle cx="560" cy="30" r="2" fill="white" stroke="gray" /><circle cx="570" cy="30" r="2" fill="white" stroke="gray" /><circle cx="590" cy="30" r="2" fill="white" stroke="gray" /><circle cx="620" cy="30" r="2" fill="white" stroke="gray" /><circle cx="560" cy="30" r="5" fill="white" stroke="gray" /><circle cx="570" cy="30" r="2" fill="white" stroke="gray" /><circle cx="690" cy="30" r="2" fill="white" stroke="gray" /><circle cx="700" cy="30" r="2" fill="white" stroke="gray" /><circle cx="710" cy="30" r="2" fill="white" stroke="gray" /><circle cx="720" cy="30" r="2" fill="white" stroke="gray" /><circle cx="750" cy="30" r="2" fill="white" stroke="gray" /><circle cx="760" cy="30" r="2" fill="white" stroke="gray" /><circle cx="770" cy="30" r="2" fill="white" stroke="gray" /><circle cx="790" cy="30" r="2" fill="white" stroke="gray" /><circle cx="800" cy="30" r="2" fill="white" stroke="gray" /><circle cx="590" cy="30" r="2" fill="white" stroke="gray" /><circle cx="600" cy="30" r="2" fill="white" stroke="gray" /><circle cx="620" cy="30" r="2" fill="white" stroke="gray" /><circle cx="630" cy="30" r="2" fill="white" stroke="gray" /><circle cx="640" cy="30" r="2" fill="white" stroke="gray" /><circle cx="660" cy="30" r="2" fill="white" stroke="gray" /><circle cx="670" cy="30" r="2" fill="white" stroke="gray" /><circle cx="680" cy="30" r="2" fill="white" stroke="gray" /><circle cx="680" cy="30" r="5" fill="white" stroke="gray" /><circle cx="690" cy="30" r="2" fill="white" stroke="gray" /><circle cx="790" cy="30" r="2" fill="white" stroke="gray" /><circle cx="800" cy="30" r="2" fill="white" stroke="gray" /><circle cx="820" cy="30" r="2" fill="white" stroke="gray" /><circle cx="830" cy="30" r="2" fill="white" stroke="gray" /><circle cx="700" cy="30" r="2" fill="white" stroke="gray" /><circle cx="710" cy="30" r="2" fill="white" stroke="gray" /><circle cx="710" cy="30" r="2" fill="white" stroke="gray" /><circle cx="720" cy="30" r="2" fill="white" stroke="gray" /><circle cx="730" cy="30" r="2" fill="white" stroke="gray" /><circle cx="750" cy="30" r="2" fill="white" stroke="gray" /><circle cx="760" cy="30" r="2" fill="white" stroke="gray" /><circle cx="770" cy="30" r="2" fill="white" stroke="gray" /><circle cx="750" cy="30" r="5" fill="white" stroke="gray" /><circle cx="760" cy="30" r="2" fill="white" stroke="gray" /><circle cx="860" cy="30" r="2" fill="white" stroke="gray" /><circle cx="870" cy="30" r="2" fill="white" stroke="gray" /><circle cx="880" cy="30" r="2" fill="white" stroke="gray" /><circle cx="770" cy="30" r="2" fill="white" stroke="gray" /><circle cx="780" cy="30" r="2" fill="white" stroke="gray" /><circle cx="790" cy="30" r="2" fill="white" stroke="gray" /><circle cx="800" cy="30" r="2" fill="white" stroke="gray" /><circle cx="810" cy="30" r="2" fill="white" stroke="gray" /><circle cx="820" cy="30" r="2" fill="white" stroke="gray" /><circle cx="830" cy="30" r="2" fill="white" stroke="gray" /><circle cx="840" cy="30" r="2" fill="white" stroke="gray" /><circle cx="810" cy="30" r="5" fill="white" stroke="gray" /><circle cx="820" cy="30" r="2" fill="white" stroke="gray" /><circle cx="900" cy="30" r="2" fill="white" stroke="gray" /><circle cx="910" cy="30" r="2" fill="white" stroke="gray" /><circle cx="920" cy="30" r="2" fill="white" stroke="gray" /><circle cx="930" cy="30" r="2" fill="white" stroke="gray" /><circle cx="830" cy="30" r="2" fill="white" stroke="gray" /><circle cx="840" cy="30" r="2" fill="white" stroke="gray" /><circle cx="850" cy="30" r="2" fill="white" stroke="gray" /><circle cx="860" cy="30" r="2" fill="white" stroke="gray" /><circle cx="870" cy="30" r="2" fill="white" stroke="gray" /><circle cx="880" cy="30" r="2" fill="white" stroke="gray" /><circle cx="880" cy="30" r="2" fill="white" stroke="gray" /><circle cx="890" cy="30" r="2" fill="white" stroke="gray" /><circle cx="870" cy="30" r="5" fill="white" stroke="gray" /><circle cx="880" cy="30" r="2" fill="white" stroke="gray" /><circle cx="880" cy="30" r="2" fill="white" stroke="gray" /><circle cx="890" cy="30" r="2" fill="white" stroke="gray" /><circle cx="900" cy="30" r="2" fill="white" stroke="gray" /><circle cx="910" cy="30" r="2" fill="white" stroke="gray" /><circle cx="920" cy="30" r="2" fill="white" stroke="gray" /><circle cx="930" cy="30" r="2" fill="white" stroke="gray" /><circle cx="940" cy="30" r="2" fill="white" stroke="gray" /><circle cx="950" cy="30" r="2" fill="white" stroke="gray" /><circle cx="930" cy="30" r="5" fill="white" stroke="gray" /><circle cx="930" cy="30" r="2" fill="white" stroke="gray" /><circle cx="940" cy="30" r="2" fill="white" stroke="gray" /><circle cx="950" cy="30" r="2" fill="white" stroke="gray" /></svg>